<svg width="145" height="45" viewBox="0 0 145 45" fill="none" xmlns="http://www.w3.org/2000/svg">
<path d="M5.592 13.76H13.656V16.88H5.592V13.76ZM5.88 23H1.992V6.2H14.688V9.32H5.88V23ZM17.3201 23V6.2H21.2081V23H17.3201ZM25.1951 23V6.2H28.4111L38.3231 18.296H36.7631V6.2H40.6031V23H37.4111L27.4751 10.904H29.0351V23H25.1951ZM44.5779 23V6.2H52.2099C54.0339 6.2 55.6419 6.552 57.0339 7.256C58.4259 7.944 59.5139 8.912 60.2979 10.16C61.0819 11.408 61.4739 12.888 61.4739 14.6C61.4739 16.296 61.0819 17.776 60.2979 19.04C59.5139 20.288 58.4259 21.264 57.0339 21.968C55.6419 22.656 54.0339 23 52.2099 23H44.5779ZM48.4659 19.808H52.0179C53.1379 19.808 54.1059 19.6 54.9219 19.184C55.7539 18.752 56.3939 18.144 56.8419 17.36C57.3059 16.576 57.5379 15.656 57.5379 14.6C57.5379 13.528 57.3059 12.608 56.8419 11.84C56.3939 11.056 55.7539 10.456 54.9219 10.04C54.1059 9.608 53.1379 9.392 52.0179 9.392H48.4659V19.808ZM67.9821 12.968H76.0701V15.992H67.9821V12.968ZM68.2701 19.88H77.4141V23H64.4061V6.2H77.1021V9.32H68.2701V19.88ZM80.5076 23V6.2H87.7796C89.2836 6.2 90.5796 6.448 91.6676 6.944C92.7556 7.424 93.5956 8.12 94.1876 9.032C94.7796 9.944 95.0756 11.032 95.0756 12.296C95.0756 13.544 94.7796 14.624 94.1876 15.536C93.5956 16.432 92.7556 17.12 91.6676 17.6C90.5796 18.08 89.2836 18.32 87.7796 18.32H82.6676L84.3956 16.616V23H80.5076ZM91.1876 23L86.9876 16.904H91.1396L95.3876 23H91.1876ZM84.3956 17.048L82.6676 15.224H87.5636C88.7636 15.224 89.6596 14.968 90.2516 14.456C90.8436 13.928 91.1396 13.208 91.1396 12.296C91.1396 11.368 90.8436 10.648 90.2516 10.136C89.6596 9.624 88.7636 9.368 87.5636 9.368H82.6676L84.3956 7.52V17.048Z" fill="black"/>
<path d="M5.404 31.64C5.916 31.64 6.364 31.74 6.748 31.94C7.14 32.132 7.444 32.428 7.66 32.828C7.884 33.228 7.996 33.732 7.996 34.34V38H7.144V34.424C7.144 33.76 6.976 33.26 6.64 32.924C6.312 32.58 5.848 32.408 5.248 32.408C4.8 32.408 4.408 32.5 4.072 32.684C3.744 32.86 3.488 33.12 3.304 33.464C3.128 33.8 3.04 34.208 3.04 34.688V38H2.188V29.096H3.04V33.428L2.872 33.104C3.072 32.648 3.392 32.292 3.832 32.036C4.272 31.772 4.796 31.64 5.404 31.64ZM12.9734 38.06C12.3174 38.06 11.7414 37.924 11.2454 37.652C10.7494 37.372 10.3614 36.992 10.0814 36.512C9.80138 36.024 9.66138 35.468 9.66138 34.844C9.66138 34.22 9.79338 33.668 10.0574 33.188C10.3294 32.708 10.6974 32.332 11.1614 32.06C11.6334 31.78 12.1614 31.64 12.7454 31.64C13.3374 31.64 13.8614 31.776 14.3174 32.048C14.7814 32.312 15.1454 32.688 15.4094 33.176C15.6734 33.656 15.8054 34.212 15.8054 34.844C15.8054 34.884 15.8014 34.928 15.7934 34.976C15.7934 35.016 15.7934 35.06 15.7934 35.108H10.3094V34.472H15.3374L15.0014 34.724C15.0014 34.268 14.9014 33.864 14.7014 33.512C14.5094 33.152 14.2454 32.872 13.9094 32.672C13.5734 32.472 13.1854 32.372 12.7454 32.372C12.3134 32.372 11.9254 32.472 11.5814 32.672C11.2374 32.872 10.9694 33.152 10.7774 33.512C10.5854 33.872 10.4894 34.284 10.4894 34.748V34.88C10.4894 35.36 10.5934 35.784 10.8014 36.152C11.0174 36.512 11.3134 36.796 11.6894 37.004C12.0734 37.204 12.5094 37.304 12.9974 37.304C13.3814 37.304 13.7374 37.236 14.0654 37.1C14.4014 36.964 14.6894 36.756 14.9294 36.476L15.4094 37.028C15.1294 37.364 14.7774 37.62 14.3534 37.796C13.9374 37.972 13.4774 38.06 12.9734 38.06ZM17.5396 38V29.096H18.3916V38H17.5396ZM24.0142 38.06C23.4702 38.06 22.9782 37.936 22.5382 37.688C22.0982 37.432 21.7462 37.068 21.4822 36.596C21.2262 36.116 21.0982 35.532 21.0982 34.844C21.0982 34.156 21.2262 33.576 21.4822 33.104C21.7382 32.624 22.0862 32.26 22.5262 32.012C22.9662 31.764 23.4622 31.64 24.0142 31.64C24.6142 31.64 25.1502 31.776 25.6222 32.048C26.1022 32.312 26.4782 32.688 26.7502 33.176C27.0222 33.656 27.1582 34.212 27.1582 34.844C27.1582 35.484 27.0222 36.044 26.7502 36.524C26.4782 37.004 26.1022 37.38 25.6222 37.652C25.1502 37.924 24.6142 38.06 24.0142 38.06ZM20.7622 40.328V31.7H21.5782V33.596L21.4942 34.856L21.6142 36.128V40.328H20.7622ZM23.9542 37.304C24.4022 37.304 24.8022 37.204 25.1542 37.004C25.5062 36.796 25.7862 36.508 25.9942 36.14C26.2022 35.764 26.3062 35.332 26.3062 34.844C26.3062 34.356 26.2022 33.928 25.9942 33.56C25.7862 33.192 25.5062 32.904 25.1542 32.696C24.8022 32.488 24.4022 32.384 23.9542 32.384C23.5062 32.384 23.1022 32.488 22.7422 32.696C22.3902 32.904 22.1102 33.192 21.9022 33.56C21.7022 33.928 21.6022 34.356 21.6022 34.844C21.6022 35.332 21.7022 35.764 21.9022 36.14C22.1102 36.508 22.3902 36.796 22.7422 37.004C23.1022 37.204 23.5062 37.304 23.9542 37.304ZM34.7117 38.06C34.0557 38.06 33.4797 37.924 32.9837 37.652C32.4877 37.372 32.0997 36.992 31.8197 36.512C31.5397 36.024 31.3997 35.468 31.3997 34.844C31.3997 34.22 31.5317 33.668 31.7957 33.188C32.0677 32.708 32.4357 32.332 32.8997 32.06C33.3717 31.78 33.8997 31.64 34.4837 31.64C35.0757 31.64 35.5997 31.776 36.0557 32.048C36.5197 32.312 36.8837 32.688 37.1477 33.176C37.4117 33.656 37.5437 34.212 37.5437 34.844C37.5437 34.884 37.5397 34.928 37.5317 34.976C37.5317 35.016 37.5317 35.06 37.5317 35.108H32.0477V34.472H37.0757L36.7397 34.724C36.7397 34.268 36.6397 33.864 36.4397 33.512C36.2477 33.152 35.9837 32.872 35.6477 32.672C35.3117 32.472 34.9237 32.372 34.4837 32.372C34.0517 32.372 33.6637 32.472 33.3197 32.672C32.9757 32.872 32.7077 33.152 32.5157 33.512C32.3237 33.872 32.2277 34.284 32.2277 34.748V34.88C32.2277 35.36 32.3317 35.784 32.5397 36.152C32.7557 36.512 33.0517 36.796 33.4277 37.004C33.8117 37.204 34.2477 37.304 34.7357 37.304C35.1197 37.304 35.4757 37.236 35.8037 37.1C36.1397 36.964 36.4277 36.756 36.6677 36.476L37.1477 37.028C36.8677 37.364 36.5157 37.62 36.0917 37.796C35.6757 37.972 35.2157 38.06 34.7117 38.06ZM43.0501 38V36.608L43.0141 36.38V34.052C43.0141 33.516 42.8621 33.104 42.5581 32.816C42.2621 32.528 41.8181 32.384 41.2261 32.384C40.8181 32.384 40.4301 32.452 40.0621 32.588C39.6941 32.724 39.3821 32.904 39.1261 33.128L38.7421 32.492C39.0621 32.22 39.4461 32.012 39.8941 31.868C40.3421 31.716 40.8141 31.64 41.3101 31.64C42.1261 31.64 42.7541 31.844 43.1941 32.252C43.6421 32.652 43.8661 33.264 43.8661 34.088V38H43.0501ZM40.8781 38.06C40.4061 38.06 39.9941 37.984 39.6421 37.832C39.2981 37.672 39.0341 37.456 38.8501 37.184C38.6661 36.904 38.5741 36.584 38.5741 36.224C38.5741 35.896 38.6501 35.6 38.8021 35.336C38.9621 35.064 39.2181 34.848 39.5701 34.688C39.9301 34.52 40.4101 34.436 41.0101 34.436H43.1821V35.072H41.0341C40.4261 35.072 40.0021 35.18 39.7621 35.396C39.5301 35.612 39.4141 35.88 39.4141 36.2C39.4141 36.56 39.5541 36.848 39.8341 37.064C40.1141 37.28 40.5061 37.388 41.0101 37.388C41.4901 37.388 41.9021 37.28 42.2461 37.064C42.5981 36.84 42.8541 36.52 43.0141 36.104L43.2061 36.692C43.0461 37.108 42.7661 37.44 42.3661 37.688C41.9741 37.936 41.4781 38.06 40.8781 38.06ZM48.7962 38.06C48.1722 38.06 47.6122 37.924 47.1162 37.652C46.6282 37.372 46.2442 36.992 45.9642 36.512C45.6842 36.024 45.5442 35.468 45.5442 34.844C45.5442 34.212 45.6842 33.656 45.9642 33.176C46.2442 32.696 46.6282 32.32 47.1162 32.048C47.6122 31.776 48.1722 31.64 48.7962 31.64C49.3322 31.64 49.8162 31.744 50.2482 31.952C50.6802 32.16 51.0202 32.472 51.2682 32.888L50.6322 33.32C50.4162 33 50.1482 32.764 49.8282 32.612C49.5082 32.46 49.1602 32.384 48.7842 32.384C48.3362 32.384 47.9322 32.488 47.5722 32.696C47.2122 32.896 46.9282 33.18 46.7202 33.548C46.5122 33.916 46.4082 34.348 46.4082 34.844C46.4082 35.34 46.5122 35.772 46.7202 36.14C46.9282 36.508 47.2122 36.796 47.5722 37.004C47.9322 37.204 48.3362 37.304 48.7842 37.304C49.1602 37.304 49.5082 37.228 49.8282 37.076C50.1482 36.924 50.4162 36.692 50.6322 36.38L51.2682 36.812C51.0202 37.22 50.6802 37.532 50.2482 37.748C49.8162 37.956 49.3322 38.06 48.7962 38.06ZM56.0642 31.64C56.5762 31.64 57.0242 31.74 57.4082 31.94C57.8002 32.132 58.1042 32.428 58.3202 32.828C58.5442 33.228 58.6562 33.732 58.6562 34.34V38H57.8042V34.424C57.8042 33.76 57.6362 33.26 57.3002 32.924C56.9722 32.58 56.5082 32.408 55.9082 32.408C55.4602 32.408 55.0682 32.5 54.7322 32.684C54.4042 32.86 54.1482 33.12 53.9642 33.464C53.7882 33.8 53.7002 34.208 53.7002 34.688V38H52.8482V29.096H53.7002V33.428L53.5322 33.104C53.7322 32.648 54.0522 32.292 54.4922 32.036C54.9322 31.772 55.4562 31.64 56.0642 31.64ZM66.6662 38.06C66.0582 38.06 65.5102 37.924 65.0222 37.652C64.5422 37.372 64.1622 36.992 63.8822 36.512C63.6022 36.024 63.4622 35.468 63.4622 34.844C63.4622 34.212 63.6022 33.656 63.8822 33.176C64.1622 32.696 64.5422 32.32 65.0222 32.048C65.5022 31.776 66.0502 31.64 66.6662 31.64C67.2902 31.64 67.8422 31.776 68.3222 32.048C68.8102 32.32 69.1902 32.696 69.4622 33.176C69.7422 33.656 69.8822 34.212 69.8822 34.844C69.8822 35.468 69.7422 36.024 69.4622 36.512C69.1902 36.992 68.8102 37.372 68.3222 37.652C67.8342 37.924 67.2822 38.06 66.6662 38.06ZM66.6662 37.304C67.1222 37.304 67.5262 37.204 67.8782 37.004C68.2302 36.796 68.5062 36.508 68.7062 36.14C68.9142 35.764 69.0182 35.332 69.0182 34.844C69.0182 34.348 68.9142 33.916 68.7062 33.548C68.5062 33.18 68.2302 32.896 67.8782 32.696C67.5262 32.488 67.1262 32.384 66.6782 32.384C66.2302 32.384 65.8302 32.488 65.4782 32.696C65.1262 32.896 64.8462 33.18 64.6382 33.548C64.4302 33.916 64.3262 34.348 64.3262 34.844C64.3262 35.332 64.4302 35.764 64.6382 36.14C64.8462 36.508 65.1262 36.796 65.4782 37.004C65.8302 37.204 66.2262 37.304 66.6662 37.304ZM73.6136 38.06C73.0216 38.06 72.5656 37.9 72.2456 37.58C71.9256 37.26 71.7656 36.808 71.7656 36.224V30.308H72.6176V36.176C72.6176 36.544 72.7096 36.828 72.8936 37.028C73.0856 37.228 73.3576 37.328 73.7096 37.328C74.0856 37.328 74.3976 37.22 74.6456 37.004L74.9456 37.616C74.7776 37.768 74.5736 37.88 74.3336 37.952C74.1016 38.024 73.8616 38.06 73.6136 38.06ZM70.6376 32.408V31.7H74.5376V32.408H70.6376ZM79.7126 31.64C80.2246 31.64 80.6726 31.74 81.0566 31.94C81.4486 32.132 81.7526 32.428 81.9686 32.828C82.1926 33.228 82.3046 33.732 82.3046 34.34V38H81.4526V34.424C81.4526 33.76 81.2846 33.26 80.9486 32.924C80.6206 32.58 80.1566 32.408 79.5566 32.408C79.1086 32.408 78.7166 32.5 78.3806 32.684C78.0526 32.86 77.7966 33.12 77.6126 33.464C77.4366 33.8 77.3486 34.208 77.3486 34.688V38H76.4966V29.096H77.3486V33.428L77.1806 33.104C77.3806 32.648 77.7006 32.292 78.1406 32.036C78.5806 31.772 79.1046 31.64 79.7126 31.64ZM87.282 38.06C86.626 38.06 86.05 37.924 85.554 37.652C85.058 37.372 84.67 36.992 84.39 36.512C84.11 36.024 83.97 35.468 83.97 34.844C83.97 34.22 84.102 33.668 84.366 33.188C84.638 32.708 85.006 32.332 85.47 32.06C85.942 31.78 86.47 31.64 87.054 31.64C87.646 31.64 88.17 31.776 88.626 32.048C89.09 32.312 89.454 32.688 89.718 33.176C89.982 33.656 90.114 34.212 90.114 34.844C90.114 34.884 90.11 34.928 90.102 34.976C90.102 35.016 90.102 35.06 90.102 35.108H84.618V34.472H89.646L89.31 34.724C89.31 34.268 89.21 33.864 89.01 33.512C88.818 33.152 88.554 32.872 88.218 32.672C87.882 32.472 87.494 32.372 87.054 32.372C86.622 32.372 86.234 32.472 85.89 32.672C85.546 32.872 85.278 33.152 85.086 33.512C84.894 33.872 84.798 34.284 84.798 34.748V34.88C84.798 35.36 84.902 35.784 85.11 36.152C85.326 36.512 85.622 36.796 85.998 37.004C86.382 37.204 86.818 37.304 87.306 37.304C87.69 37.304 88.046 37.236 88.374 37.1C88.71 36.964 88.998 36.756 89.238 36.476L89.718 37.028C89.438 37.364 89.086 37.62 88.662 37.796C88.246 37.972 87.786 38.06 87.282 38.06ZM91.8482 38V31.7H92.6642V33.416L92.5802 33.116C92.7562 32.636 93.0522 32.272 93.4682 32.024C93.8842 31.768 94.4002 31.64 95.0162 31.64V32.468C94.9842 32.468 94.9522 32.468 94.9202 32.468C94.8882 32.46 94.8562 32.456 94.8242 32.456C94.1602 32.456 93.6402 32.66 93.2642 33.068C92.8882 33.468 92.7002 34.04 92.7002 34.784V38H91.8482Z" fill="black"/>
<rect x="105" y="5" width="40" height="40" rx="5" fill="url(#paint0_linear_4_35)"/>
<path d="M113 33.7294C117.341 36.7977 128.414 41.1061 137.982 33.7928" stroke="black"/>
<path d="M112 19.7669C114 18.4336 118.6 16.5669 121 19.7669" stroke="black"/>
<path d="M131 19.7669C133 18.4336 137.6 16.5669 140 19.7669" stroke="black"/>
<defs>
<linearGradient id="paint0_linear_4_35" x1="142.5" y1="21.5" x2="96.5" y2="21.5" gradientUnits="userSpaceOnUse">
<stop stop-color="#07FFA6"/>
<stop offset="1" stop-color="#00D1FF" stop-opacity="0"/>
</linearGradient>
</defs>
</svg>
